<?xml version="1.0" standalone="no"?>
<!DOCTYPE svg PUBLIC "-//W3C//DTD SVG 20010904//EN"
 "http://www.w3.org/TR/2001/REC-SVG-20010904/DTD/svg10.dtd">
<svg version="1.0" xmlns="http://www.w3.org/2000/svg"
 width="200.000000pt" height="200.000000pt" viewBox="0 0 200.000000 200.000000"
 preserveAspectRatio="xMidYMid meet">
<metadata>
Created by potrace 1.11, written by Peter Selinger 2001-2013
</metadata>
<g transform="translate(0.000000,200.000000) scale(0.100000,-0.100000)"
fill="#000000" stroke="none">
<path d="M816 1974 c-411 -80 -722 -394 -800 -809 -17 -93 -13 -290 9 -385 44
-192 129 -344 270 -485 156 -156 310 -237 535 -283 58 -11 311 -7 365 6 28 7
60 14 71 16 41 8 159 59 225 97 214 124 364 303 448 537 17 45 28 82 26 82 -3
0 -1 10 4 23 22 56 31 232 18 347 -36 324 -261 633 -567 778 -174 82 -417 112
-604 76z m-391 -623 c3 -5 1 -12 -5 -16 -11 -7 -14 -83 -4 -109 5 -13 11 -12
46 6 127 66 267 45 284 -42 4 -19 18 -49 30 -66 86 -112 54 -307 -68 -427 -60
-58 -112 -80 -188 -80 -112 0 -196 56 -243 162 -42 96 -23 237 46 334 34 48
34 49 20 90 -19 54 -11 116 17 139 24 19 55 24 65 9z m757 -166 c9 -20 8 -46
-7 -123 -10 -53 -20 -104 -23 -112 -3 -8 8 -3 24 11 85 78 141 61 123 -35 -16
-86 -17 -106 -7 -112 15 -9 19 0 23 55 6 63 34 104 93 132 70 34 151 12 152
-43 0 -24 -34 -40 -67 -32 -42 10 -44 13 -23 34 11 11 17 26 14 35 -8 21 -40
3 -59 -35 -19 -37 -25 -131 -8 -137 14 -5 32 34 35 73 3 27 11 29 57 13 26 -9
31 -16 31 -42 0 -18 5 -39 10 -47 8 -13 11 -13 24 0 9 10 16 48 19 111 l6 96
-27 12 c-20 10 -23 14 -12 21 8 5 17 7 21 4 12 -7 22 16 25 53 2 42 2 42 46
47 45 6 71 -18 64 -59 -5 -26 -3 -27 25 -21 21 4 31 1 35 -8 9 -24 -14 -54
-43 -58 -29 -3 -38 -24 -48 -103 -3 -22 -8 -52 -11 -68 -8 -38 22 -49 47 -16
13 17 19 20 19 8 0 -22 -40 -57 -73 -63 -20 -3 -34 1 -48 15 -19 19 -22 19
-44 5 -26 -17 -63 -21 -81 -8 -5 4 -17 18 -26 30 -16 24 -16 24 -27 4 -20 -37
-40 -51 -68 -46 -15 3 -32 9 -39 15 -7 6 -22 3 -43 -7 -78 -39 -115 28 -81
145 5 17 6 31 2 31 -28 -1 -61 -63 -69 -128 -3 -26 -7 -49 -9 -51 -7 -8 -69
-2 -72 7 -1 5 -23 2 -47 -6 -61 -20 -110 -9 -152 33 -31 31 -34 38 -28 77 9
56 36 92 84 111 58 24 115 6 124 -39 7 -36 -10 -54 -52 -54 -47 0 -54 7 -36
34 17 24 20 56 5 56 -13 0 -28 -39 -33 -87 -5 -46 16 -91 46 -98 31 -8 77 11
78 32 1 40 10 109 15 123 3 8 8 62 11 120 3 61 10 108 17 112 6 4 26 8 44 8
25 0 35 -6 44 -25z"/>
<path d="M559 1240 c-45 -13 -97 -41 -103 -57 -21 -55 168 -129 229 -89 31 20
24 37 -25 65 -22 12 -40 25 -40 28 0 3 20 3 44 1 41 -5 44 -4 33 13 -21 33
-88 52 -138 39z"/>
<path d="M388 1062 c-8 -22 -13 -85 -13 -157 0 -108 2 -125 25 -169 33 -67 67
-90 133 -92 68 -1 90 10 139 76 26 35 45 84 56 143 8 46 8 189 -1 211 -7 17
-9 17 -25 4 -43 -38 -101 -54 -178 -49 -12 0 -45 16 -73 35 l-50 34 -13 -36z"/>
</g>
</svg>
